:SAMPLES-PER-SECOND 30
:FULLY-SPECIFIED
:DEGREES
32
root  80.3304 40.0776 23.0695 108.924 -88.9189 -108.986
RightUpLeg  -1.83791 -7.34003 -2.59042
RightLeg  6.48115 -5.28636 3.54271
RightFoot  -4.00858 0.156044 -2.98872
RightToes  1.16414e-010 0 -3.6325e-017
Spine  4.26927 1.64179 0.720417
Spine1  -0.717972 0.959954 4.87114
HEad  4.03958 4.26773 -3.1295
LeftShoulder1  4.27293 -6.85841 -35.1243
LeftArm  -43.8831 36.0163 16.2393
LeftForeArm  39.2284 -65.7634 -21.0462
LeftHand  -0.244104 0.0205437 5.32207
RightShoulder  1.22937 1.59445 17.5392
RightArm  -20.2626 -9.46105 8.5886
RightForeArm  1.20993 10.6969 3.97018
RightHand  -1.32015 4.4095 -15.8234
LeftUpLeg  -3.63593 31.0117 9.73347
LeftLeg  13.47 -26.7368 -10.7923
LeftFoot  -2.07679 0.0463572 -0.255621
LeftToes  9.04034e-010 7.59002e-011 -1.12606e-011
33
root  80.3355 40.0748 23.0919 113.263 -88.9287 -113.362
RightUpLeg  -1.86417 -7.37629 -2.66393
RightLeg  6.59258 -5.167 3.51966
RightFoot  -4.05746 0.153657 -2.95153
RightToes  1.16414e-010 0 -3.6325e-017
Spine  4.34527 1.55952 1.08307
Spine1  -0.412008 0.923143 4.60758
HEad  4.27438 3.08587 -2.90091
LeftShoulder1  4.40259 -7.1879 -35.1294
LeftArm  -37.8012 35.863 14.6968
LeftForeArm  30.6731 -67.5478 -25.9565
LeftHand  -0.244104 0.0205437 5.32207
RightShoulder  1.6156 2.5193 20.3433
RightArm  -20.0916 -10.9058 11.0237
RightForeArm  1.65827 11.7792 4.05471
RightHand  -1.27623 4.29707 -15.4833
LeftUpLeg  -3.56056 31.1464 9.70288
LeftLeg  13.4703 -26.8058 -10.8053
LeftFoot  -2.12032 0.0474342 -0.272358
LeftToes  9.04034e-010 7.59002e-011 -1.12606e-011
34
root  80.3324 40.0651 23.1152 115.319 -88.8831 -115.577
RightUpLeg  -1.75985 -7.44923 -2.71548
RightLeg  6.75505 -5.04093 3.54081
RightFoot  -4.178 0.150523 -2.90272
RightToes  1.16414e-010 0 -3.6325e-017
Spine  4.10271 1.14373 2.55275
Spine1  0.671436 0.84889 2.6704
HEad  4.67555 0.703538 -1.76939
LeftShoulder1  4.91002 -8.08051 -37.0662
LeftArm  -14.9351 35.4936 8.5652
LeftForeArm  11.8788 -76.4708 -58.1916
LeftHand  -0.244104 0.0205437 5.32207
RightShoulder  2.23718 3.82579 24.4064
RightArm  -19.9974 -12.0538 13.1476
RightForeArm  1.5391 12.2419 4.11957
RightHand  -1.21534 4.12474 -15.0181
LeftUpLeg  -3.37457 31.4748 9.78306
LeftLeg  13.6122 -27.1264 -10.8211
LeftFoot  -2.31386 0.0429021 -0.201927
LeftToes  9.04034e-010 7.59002e-011 -1.12606e-011
35
root  80.3326 40.0521 23.137 118.777 -88.7949 -119.089
RightUpLeg  -1.77611 -7.51401 -2.73853
RightLeg  6.89979 -4.92124 3.59943
RightFoot  -4.3045 0.146682 -2.85868
RightToes  1.16414e-010 0 -3.6325e-017
Spine  3.94645 1.34517 2.45362
Spine1  1.37344 0.880486 3.50731
HEad  4.53416 -0.249834 -2.1352
LeftShoulder1  9.22245 -10.2769 -54.419
LeftArm  -31.9626 43.5253 11.4243
LeftForeArm  61.673 -74.6295 -113.688
LeftHand  -0.244104 0.0205437 5.32207
RightShoulder  2.68057 4.56218 27.1776
RightArm  -19.1338 -13.449 15.6027
RightForeArm  3.23849 12.7689 4.18351
RightHand  -1.08325 3.65682 -14.0883
LeftUpLeg  -3.45095 31.9977 9.73688
LeftLeg  14.007 -27.5319 -10.7945
LeftFoot  -2.59217 0.0343156 -0.0684884
LeftToes  9.04034e-010 7.59002e-011 -1.12606e-011
36
root  80.3277 40.0394 23.1569 123.992 -88.7071 -124.251
RightUpLeg  -1.9317 -7.53752 -2.75423
RightLeg  7.09437 -4.81274 3.61459
RightFoot  -4.48233 0.134712 -2.75247
RightToes  1.16414e-010 0 -3.6325e-017
Spine  3.72353 1.55105 2.30624
Spine1  2.05434 0.886377 4.39622
HEad  4.21691 -1.32268 -2.52338
LeftShoulder1  19.7947 -16.3052 -81.8782
LeftArm  -57.2007 60.8855 16.7595
LeftForeArm  90.0644 -53.9813 -163.621
LeftHand  -0.244104 0.0205437 5.32207
RightShoulder  3.09043 5.17072 29.671
RightArm  -17.6817 -14.6921 18.6196
RightForeArm  5.70291 13.0784 4.28102
RightHand  -0.922511 2.86279 -13.16
LeftUpLeg  -3.74837 32.5574 9.53346
LeftLeg  14.549 -27.8671 -10.7034
LeftFoot  -2.89495 0.0329912 -0.0479053
LeftToes  9.04034e-010 7.59002e-011 -1.12606e-011
37
root  80.3029 40.0202 23.1762 124.831 -88.6495 -125.246
RightUpLeg  -1.92169 -7.53696 -2.75943
RightLeg  7.52921 -4.76652 3.5343
RightFoot  -4.82724 0.113252 -2.56289
RightToes  1.16414e-010 0 -3.6325e-017
Spine  3.76151 1.87618 1.33851
Spine1  2.59017 0.708759 6.77793
HEad  3.76076 -1.43462 -3.64698
LeftShoulder1  20.5205 -16.5205 -82.2389
LeftArm  -64.0877 61.5261 -1.02686
LeftForeArm  102.416 -51.3688 -163.398
LeftHand  -0.244104 0.0205437 5.32207
RightShoulder  3.23424 5.31853 30.7196
RightArm  -16.9047 -15.8735 22.8492
RightForeArm  6.46003 12.8339 4.43031
RightHand  -0.811431 2.18366 -12.6027
LeftUpLeg  -3.74579 33.0793 9.50603
LeftLeg  15.0538 -28.3348 -10.6338
LeftFoot  -3.25769 0.0386266 -0.135483
LeftToes  9.04034e-010 7.59002e-011 -1.12606e-011
38
root  80.2654 39.9888 23.1934 117.642 -88.6265 -118.568
RightUpLeg  -1.57916 -7.52411 -2.72306
RightLeg  8.1796 -4.86146 3.37504
RightFoot  -5.30795 0.0895672 -2.38211
RightToes  1.16414e-010 0 -3.6325e-017
Spine  4.3124 1.31602 2.27526
Spine1  3.08225 0.344621 5.86955
HEad  3.29085 -1.69763 -3.21808
LeftShoulder1  24.2224 -17.9547 -87.9121
LeftArm  -75.4078 58.9914 -13.0778
LeftForeArm  121.018 -52.0686 -163.112
LeftHand  -0.244104 0.0205437 5.32207
RightShoulder  3.75634 6.01899 33.3795
RightArm  -16.8107 -16.4808 26.8986
RightForeArm  6.95186 11.7953 4.55143
RightHand  -0.758657 2.03017 -12.0351
LeftUpLeg  -3.25057 33.6266 9.83973
LeftLeg  15.5384 -29.113 -10.6892
LeftFoot  -3.69776 0.0332012 -0.0511698
LeftToes  9.04034e-010 7.59002e-011 -1.12606e-011
39
root  80.2277 39.9521 23.1996 114.117 -88.6517 -115.528
RightUpLeg  -1.34157 -7.49403 -2.69548
RightLeg  8.96467 -4.94406 3.09052
RightFoot  -5.92213 0.0629033 -2.17806
RightToes  1.16414e-010 0 -3.6325e-017
Spine  4.51618 -0.112886 5.06275
Spine1  4.41897 -0.139945 1.34118
HEad  2.25409 -1.43277 -1.10801
LeftShoulder1  25.6517 -18.0934 -89.8059
LeftArm  -55.3689 41.6653 0.400111
LeftForeArm  126.427 -69.4601 -148.888
LeftHand  -0.244104 0.0205437 5.32207
RightShoulder  4.82643 7.48714 37.9275
RightArm  -15.9892 -16.031 30.6425
RightForeArm  9.21777 10.2501 4.72564
RightHand  -0.658608 1.61316 -11.0435
LeftUpLeg  -2.79124 34.155 10.095
LeftLeg  16.0887 -29.7569 -10.7623
LeftFoot  -4.18354 0.0142162 0.24387
LeftToes  9.04034e-010 7.59002e-011 -1.12606e-011
40
root  80.175 39.9143 23.188 131.791 -88.6806 -133.257
RightUpLeg  -1.77727 -7.54901 -2.7577
RightLeg  10.1314 -4.54579 2.55431
RightFoot  -7.00054 0.0169419 -1.68673
RightToes  1.16414e-010 0 -3.6325e-017
Spine  4.71993 -0.345748 3.9637
Spine1  5.02308 -0.799317 3.10457
HEad  1.26139 -2.52192 -1.65519
LeftShoulder1  12.3296 -12.4069 -66.5666
LeftArm  9.30061 34.5566 9.20518
LeftForeArm  67.7232 -76.9919 -111.145
LeftHand  -0.244104 0.0205437 5.32207
RightShoulder  5.29959 8.28124 38.8825
RightArm  -14.1783 -15.9899 35.045
RightForeArm  7.84566 8.86286 5.42222
RightHand  -0.426647 -0.323075 -9.76664
LeftUpLeg  -2.82325 34.4931 9.78227
LeftLeg  16.6537 -29.6743 -10.6223
LeftFoot  -4.85466 0.0130496 0.280129
LeftToes  9.04034e-010 7.59002e-011 -1.12606e-011
41
root  80.0787 39.8625 23.1637 157.601 -88.381 -158.981
RightUpLeg  -2.51568 -7.7648 -2.77096
RightLeg  11.7726 -3.6375 1.81811
RightFoot  -8.86824 -0.0424791 -0.773267
RightToes  1.16414e-010 0 -3.6325e-017
Spine  4.51756 -0.196044 3.84052
Spine1  5.83274 -0.648501 3.02246
HEad  0.160073 -3.20647 -1.6028
LeftShoulder1  7.66385 -8.47932 -56.0751
LeftArm  15.4759 42.4697 -13.5326
LeftForeArm  31.162 -76.6361 -53.7498
LeftHand  -0.244104 0.0205437 5.32207
RightShoulder  5.67027 8.63003 40.5654
RightArm  -13.8177 -16.5915 37.8503
RightForeArm  -3.75172 7.97937 6.52238
RightHand  -0.213964 -2.88525 -9.55568
LeftUpLeg  -2.96623 34.6085 9.34094
LeftLeg  17.3006 -29.178 -10.3231
LeftFoot  -6.06459 0.0480743 -0.268892
LeftToes  9.04034e-010 7.59002e-011 -1.12606e-011
42
root  79.9376 39.7897 23.132 163.967 -87.9686 -165.524
RightUpLeg  -2.81717 -8.03263 -2.58843
RightLeg  13.4698 -2.85227 1.18691
RightFoot  -11.3756 -0.076692 0.3234
RightToes  1.16414e-010 0 -3.6325e-017
Spine  4.49568 -0.0821806 4.14301
Spine1  6.61827 -0.489008 2.89452
HEad  -0.838345 -3.66459 -1.55789
LeftShoulder1  7.3545 -7.92315 -55.8687
LeftArm  16.5099 40.4379 -12.3286
LeftForeArm  19.4407 -75.2061 -50.1239
LeftHand  -0.244104 0.0205437 5.32207
RightShoulder  5.71002 8.60237 40.9669
RightArm  -15.5893 -17.861 38.9868
RightForeArm  -15.9256 8.1639 7.04381
RightHand  -0.259406 -2.93917 -11.6861
LeftUpLeg  -2.76995 34.5447 9.45044
LeftLeg  18.1213 -28.8725 -10.1252
LeftFoot  -7.88732 0.0788698 -1.04955
LeftToes  9.04034e-010 7.59002e-011 -1.12606e-011
43
root  79.755 39.7201 23.0905 155.913 -87.8888 -157.835
RightUpLeg  -2.39015 -8.27785 -2.30443
RightLeg  14.5293 -2.68986 0.913443
RightFoot  -14.0312 -0.0633146 1.35142
RightToes  1.16414e-010 0 -3.6325e-017
Spine  4.87554 -0.118561 4.77239
Spine1  6.83569 -0.423268 2.70845
HEad  -1.43669 -4.35383 -1.15289
LeftShoulder1  8.09664 -8.70815 -57.4673
LeftArm  17.2245 41.6666 -6.3411
LeftForeArm  39.5535 -78.7975 -64.3281
LeftHand  -0.244104 0.0205437 5.32207
RightShoulder  5.49501 8.24778 40.5938
RightArm  -15.0627 -19.3721 37.9701
RightForeArm  -12.0618 9.82704 6.84179
RightHand  -0.496437 -0.694077 -12.3282
LeftUpLeg  -2.32819 33.9787 10.121
LeftLeg  18.9557 -28.5039 -10.1069
LeftFoot  -9.88043 0.0789413 -1.49222
LeftToes  9.04034e-010 7.59002e-011 -1.12606e-011
